<?xml version="1.0" standalone="no"?>
<!DOCTYPE svg PUBLIC "-//W3C//DTD SVG 20010904//EN"
 "http://www.w3.org/TR/2001/REC-SVG-20010904/DTD/svg10.dtd">
<svg version="1.0" xmlns="http://www.w3.org/2000/svg"
 width="365.000000pt" height="194.000000pt" viewBox="0 0 365.000000 194.000000"
 preserveAspectRatio="xMidYMid meet">

<g transform="translate(0.000000,194.000000) scale(0.100000,-0.100000)"
fill="#000000" stroke="none">
<path d="M0 970 l0 -970 1825 0 1825 0 0 970 0 970 -1825 0 -1825 0 0 -970z
m795 658 c-103 -57 -190 -163 -225 -275 -18 -59 -20 -93 -20 -379 0 -195 4
-333 11 -366 25 -115 98 -222 197 -288 l47 -32 -115 4 c-100 3 -123 7 -172 30
-32 15 -80 48 -108 74 l-50 47 0 520 0 520 44 42 c46 44 129 89 193 104 21 5
79 9 128 10 71 0 86 -2 70 -11z m535 2 c19 -5 45 -12 58 -15 16 -6 22 -3 22 9
0 33 142 11 239 -38 128 -65 221 -226 221 -382 l0 -46 -130 4 c-143 3 -143 3
-154 69 -7 45 -48 97 -93 115 -24 11 -92 14 -268 14 l-235 0 0 140 0 140 153
0 c83 0 168 -5 187 -10z m-125 -541 c125 -70 155 -94 155 -124 0 -36 -20 -53
-160 -134 l-135 -79 -42 112 c-24 61 -50 128 -58 149 l-15 38 29 -16 c45 -23
57 -19 70 27 20 64 30 88 38 88 4 0 57 -28 118 -61z m1015 -34 c0 -9 -9 -15
-25 -15 -16 0 -25 6 -25 15 0 9 9 15 25 15 16 0 25 -6 25 -15z m1160 -74 l0
-88 -57 -1 c-32 0 -64 4 -70 10 -18 15 -16 93 2 108 8 7 28 10 45 8 27 -4 30
-2 30 24 0 23 4 28 25 28 25 0 25 -1 25 -89z m-1804 28 c4 -6 11 -6 19 1 8 6
26 10 42 8 27 -3 28 -5 31 -65 3 -62 2 -63 -23 -63 -23 0 -25 3 -25 51 0 66
-24 62 -28 -4 -3 -42 -6 -47 -27 -47 -21 0 -24 5 -27 48 -2 34 -7 47 -18 47
-11 0 -16 -13 -18 -47 -3 -43 -5 -48 -28 -48 -23 0 -24 3 -24 64 l0 63 60 1
c33 0 62 -4 66 -9z m298 -5 c21 -20 20 -73 -1 -96 -20 -23 -80 -24 -105 -1
-22 20 -23 70 -1 95 20 23 85 24 107 2z m142 -19 c3 -19 10 -35 15 -35 4 0 11
16 15 35 5 29 11 35 31 35 16 0 23 -5 20 -12 -2 -7 -13 -37 -23 -65 -16 -46
-22 -53 -45 -53 -23 0 -29 8 -48 56 -27 70 -26 74 4 74 20 0 25 -6 31 -35z
m204 -30 c0 -63 -1 -65 -25 -65 -24 0 -25 2 -25 65 0 63 1 65 25 65 24 0 25
-2 25 -65z m214 43 c27 -38 20 -48 -34 -48 -28 0 -50 -5 -50 -10 0 -16 30 -24
43 -11 12 12 57 15 57 4 0 -21 -37 -43 -72 -43 -66 0 -103 66 -61 112 24 27
97 25 117 -4z m132 -13 c7 -40 19 -38 27 5 5 24 12 30 32 30 20 0 27 -6 32
-30 8 -43 20 -45 27 -5 6 29 11 35 31 35 l25 0 -24 -62 c-19 -52 -27 -64 -48
-66 -21 -3 -26 3 -34 35 l-10 38 -10 -35 c-8 -27 -16 -36 -36 -38 -23 -3 -28
2 -43 50 -10 29 -20 59 -23 66 -2 7 5 12 21 12 22 0 27 -6 33 -35z m359 21
c13 -9 19 -26 19 -51 0 -44 -22 -65 -71 -65 -61 0 -96 68 -56 112 19 22 81 24
108 4z m219 -2 c21 -20 20 -73 -1 -96 -20 -23 -80 -24 -105 -1 -22 20 -23 70
-1 95 20 23 85 24 107 2z m-1274 -298 c0 -155 -103 -313 -249 -383 -70 -33
-211 -46 -211 -20 0 15 -4 15 -41 2 -30 -11 -88 -15 -210 -15 l-169 0 0 134 0
135 243 3 c207 3 247 6 274 20 41 23 73 69 80 115 8 58 21 63 160 63 l123 0 0
-54z"/>
<path d="M3285 969 c-4 -13 -2 -27 7 -36 13 -12 16 -12 27 1 15 18 5 56 -14
56 -8 0 -17 -10 -20 -21z"/>
<path d="M1802 958 c3 -36 31 -50 42 -22 10 26 -3 54 -25 54 -17 0 -20 -6 -17
-32z"/>
<path d="M2350 980 c0 -5 12 -10 26 -10 14 0 23 4 19 10 -3 6 -15 10 -26 10
-10 0 -19 -4 -19 -10z"/>
<path d="M2854 976 c-10 -26 0 -51 21 -51 16 0 20 7 20 30 0 33 -30 49 -41 21z"/>
<path d="M3072 958 c3 -36 31 -50 42 -22 10 26 -3 54 -25 54 -17 0 -20 -6 -17
-32z"/>
</g>
</svg>
